<svg width="100" height="25" viewBox="0 0 148 37" fill="none" xmlns="http://www.w3.org/2000/svg">
<path d="M17.54 25.216H17.852L22.116 9.148C23.0173 5.68133 24.404 3.30666 26.276 2.024C28.148 0.741331 30.9733 0.0999975 34.752 0.0999975V36.5H29.864V5.612C28.9627 5.99333 28.2693 6.53067 27.784 7.224C27.3333 7.91733 26.9 8.95733 26.484 10.344L19.984 32.652H15.408L8.856 10.344C8.44 8.92267 8.00667 7.88267 7.556 7.224C7.10533 6.53067 6.42933 5.99333 5.528 5.612V36.5H0.64V0.0999975C4.41867 0.0999975 7.22667 0.758664 9.064 2.076C10.936 3.35867 12.34 5.716 13.276 9.148L17.54 25.216ZM62.4627 36.5H41.7667V8.784C41.7667 6.21866 42.5814 4.156 44.2107 2.596C45.3201 1.556 46.5681 0.879998 47.9547 0.567998C49.3414 0.255998 51.0401 0.0999975 53.0507 0.0999975H62.4627V4.676H52.3747C48.5614 4.676 46.6547 6.27066 46.6547 9.46V15.388H58.6667V19.964H46.6547V31.924H62.4627V36.5ZM72.541 36.5H67.913V13.62C67.913 9.876 69.109 6.68667 71.501 4.052C73.9276 1.41733 77.0476 0.0999975 80.861 0.0999975H92.769V36.5H87.881V4.676H80.861C78.3303 4.676 76.3023 5.42133 74.777 6.912C73.2863 8.40267 72.541 10.7773 72.541 14.036V18.456C74.4823 16.4107 77.2556 15.388 80.861 15.388H85.593V19.964H80.861C78.8503 19.964 77.2036 20.2067 75.921 20.692C74.673 21.1773 73.5463 22.0093 72.541 23.188V36.5ZM120.194 31.924V36.5H112.602C111.18 36.5 110.054 36.4827 109.222 36.448C108.424 36.3787 107.419 36.1707 106.206 35.824C104.992 35.4427 103.97 34.888 103.138 34.16C101.855 32.9813 101.023 31.5773 100.642 29.948C100.26 28.284 100.07 26.3427 100.07 24.124V0.0999975H104.958V24.02C104.958 26.0307 105.183 27.608 105.634 28.752C106.535 30.8667 108.424 31.924 111.302 31.924H120.194ZM147.412 0.0999975V2.7C147.412 6.92933 146.614 10.812 145.02 14.348C143.46 17.8493 141.172 20.5187 138.156 22.356V36.5H133.268V22.46C130.252 20.6573 127.929 18.04 126.3 14.608C124.67 11.1413 123.856 7.328 123.856 3.168V0.0999975H128.848V2.7C128.848 6.27066 129.35 9.33866 130.356 11.904C131.396 14.4347 133.181 16.5147 135.712 18.144C140.253 15.128 142.524 9.98 142.524 2.7V0.0999975H147.412Z" fill="#381E72"/>
</svg>
