<svg width="136" height="34" viewBox="0 0 136 34" fill="none" xmlns="http://www.w3.org/2000/svg">
<path d="M15.96 23.584H16.248L20.184 8.752C21.016 5.552 22.296 3.36 24.024 2.176C25.752 0.991998 28.36 0.399998 31.848 0.399998V34H27.336V5.488C26.504 5.84 25.864 6.336 25.416 6.976C25 7.616 24.6 8.576 24.216 9.856L18.216 30.448H13.992L7.944 9.856C7.56 8.544 7.16 7.584 6.744 6.976C6.328 6.336 5.704 5.84 4.872 5.488V34H0.36V0.399998C3.848 0.399998 6.44 1.008 8.136 2.224C9.864 3.408 11.16 5.584 12.024 8.752L15.96 23.584ZM57.4271 34H38.3231V8.416C38.3231 6.048 39.0751 4.144 40.5791 2.704C41.6031 1.744 42.7551 1.12 44.0351 0.831998C45.3151 0.543998 46.8831 0.399998 48.7391 0.399998H57.4271V4.624H48.1151C44.5951 4.624 42.8351 6.096 42.8351 9.04V14.512H53.9231V18.736H42.8351V29.776H57.4271V34ZM66.7301 34H62.4581V12.88C62.4581 9.424 63.5621 6.48 65.7701 4.048C68.0101 1.616 70.8901 0.399998 74.4101 0.399998H85.4021V34H80.8901V4.624H74.4101C72.0741 4.624 70.2021 5.312 68.7941 6.688C67.4181 8.064 66.7301 10.256 66.7301 13.264V17.344C68.5221 15.456 71.0821 14.512 74.4101 14.512H78.7781V18.736H74.4101C72.5541 18.736 71.0341 18.96 69.8501 19.408C68.6981 19.856 67.6581 20.624 66.7301 21.712V34ZM110.717 29.776V34H103.709C102.397 34 101.357 33.984 100.589 33.952C99.8533 33.888 98.9253 33.696 97.8053 33.376C96.6853 33.024 95.7413 32.512 94.9733 31.84C93.7893 30.752 93.0213 29.456 92.6693 27.952C92.3173 26.416 92.1413 24.624 92.1413 22.576V0.399998H96.6533V22.48C96.6533 24.336 96.8613 25.792 97.2773 26.848C98.1093 28.8 99.8533 29.776 102.509 29.776H110.717ZM135.842 0.399998V2.8C135.842 6.704 135.106 10.288 133.634 13.552C132.194 16.784 130.082 19.248 127.298 20.944V34H122.786V21.04C120.002 19.376 117.858 16.96 116.354 13.792C114.85 10.592 114.098 7.072 114.098 3.232V0.399998H118.706V2.8C118.706 6.096 119.17 8.928 120.098 11.296C121.058 13.632 122.706 15.552 125.042 17.056C129.234 14.272 131.33 9.52 131.33 2.8V0.399998H135.842Z" fill="white"/>
</svg>
