<svg width="60" height="61" viewBox="0 0 60 61" fill="none" xmlns="http://www.w3.org/2000/svg">
<path d="M51 6.5C51 3.2 48.3 0.5 45 0.5H36V6.5H45V14.45L34.5 27.5H24V12.5H12C5.37 12.5 0 17.87 0 24.5V33.5H6C6 38.48 10.02 42.5 15 42.5C19.98 42.5 24 38.48 24 33.5H37.5L51 16.55V6.5ZM15 36.5C13.35 36.5 12 35.15 12 33.5H18C18 35.15 16.65 36.5 15 36.5ZM9 3.5H24V9.5H9V3.5ZM51 24.5C46.02 24.5 42 28.52 42 33.5C42 38.48 46.02 42.5 51 42.5C55.98 42.5 60 38.48 60 33.5C60 28.52 55.98 24.5 51 24.5ZM51 36.5C49.35 36.5 48 35.15 48 33.5C48 31.85 49.35 30.5 51 30.5C52.65 30.5 54 31.85 54 33.5C54 35.15 52.65 36.5 51 36.5ZM15 51.5H27V45.5L45 54.5H33V60.5L15 51.5Z" fill="#381E72"/>
</svg>
