<svg width="50" height="50" viewBox="0 0 50 50" fill="none" xmlns="http://www.w3.org/2000/svg">
<path d="M2.5 0.0219167C1.83696 0.0219167 1.20107 0.314446 0.732233 0.835152C0.263392 1.35586 0 2.06209 0 2.79848V18.0696C0 22.7619 2.575 26.7602 6.25 28.3984V45.8352C6.25 46.9397 6.64509 47.9991 7.34835 48.7801C8.05161 49.5612 9.00544 50 10 50C10.9946 50 11.9484 49.5612 12.6517 48.7801C13.3549 47.9991 13.75 46.9397 13.75 45.8352V28.3984C17.425 26.7602 20 22.7619 20 18.0696V2.79848C20 2.06209 19.7366 1.35586 19.2678 0.835152C18.7989 0.314446 18.163 0.0219167 17.5 0.0219167C16.837 0.0219167 16.2011 0.314446 15.7322 0.835152C15.2634 1.35586 15 2.06209 15 2.79848V13.9047C15 14.2729 14.8683 14.626 14.6339 14.8864C14.3995 15.1467 14.0815 15.293 13.75 15.293C13.4185 15.293 13.1005 15.1467 12.8661 14.8864C12.6317 14.626 12.5 14.2729 12.5 13.9047V2.79848C12.5 2.06209 12.2366 1.35586 11.7678 0.835152C11.2989 0.314446 10.663 0.0219167 10 0.0219167C9.33696 0.0219167 8.70107 0.314446 8.23223 0.835152C7.76339 1.35586 7.5 2.06209 7.5 2.79848V13.9047C7.5 14.2729 7.3683 14.626 7.13388 14.8864C6.89946 15.1467 6.58152 15.293 6.25 15.293C5.91848 15.293 5.60054 15.1467 5.36612 14.8864C5.1317 14.626 5 14.2729 5 13.9047V2.79848C5 2.06209 4.73661 1.35586 4.26777 0.835152C3.79893 0.314446 3.16304 0.0219167 2.5 0.0219167ZM44.7 0.0219167C44.375 0.0219167 44.05 0.271807 43.75 0.466167L35 6.26918V16.6813H25V22.2344H27.5L30 50H45L47.5 22.2344H50V16.6813H40V9.29563L46.25 5.13079C47.5 4.35335 47.825 2.79848 47.1 1.4102C46.575 0.410635 45.65 -0.116911 44.7 0.0219167Z" fill="#381E72"/>
</svg>
