<svg width="16" height="16" viewBox="0 0 16 16" fill="none" xmlns="http://www.w3.org/2000/svg">
<path d="M14.0511 15.2653L9.27841 10.4858C8.85227 10.8272 8.36222 11.0974 7.80824 11.2966C7.25426 11.4957 6.66477 11.5953 6.03977 11.5953C4.49148 11.5953 3.18125 11.0582 2.10909 9.98393C1.03693 8.90967 0.500568 7.59758 0.5 6.04765C0.5 4.49715 1.03636 3.18506 2.10909 2.11138C3.18182 1.0377 4.49205 0.500569 6.03977 0.5C7.58807 0.5 8.8983 1.03713 9.97045 2.11138C11.0426 3.18563 11.579 4.49772 11.5795 6.04765C11.5795 6.67354 11.4801 7.26387 11.2812 7.81863C11.0824 8.3734 10.8125 8.86415 10.4716 9.2909L15.2656 14.0917C15.4219 14.2482 15.5 14.4403 15.5 14.6679C15.5 14.8954 15.4148 15.0946 15.2443 15.2653C15.0881 15.4218 14.8892 15.5 14.6477 15.5C14.4062 15.5 14.2074 15.4218 14.0511 15.2653ZM6.03977 9.88834C7.10511 9.88834 8.0108 9.51479 8.75682 8.76771C9.50284 8.02063 9.87557 7.11394 9.875 6.04765C9.875 4.9808 9.50199 4.07383 8.75597 3.32674C8.00994 2.57966 7.10455 2.2064 6.03977 2.20697C4.97443 2.20697 4.06875 2.58051 3.32273 3.3276C2.5767 4.07468 2.20398 4.98137 2.20455 6.04765C2.20455 7.11451 2.57756 8.02148 3.32358 8.76856C4.0696 9.51565 4.975 9.8889 6.03977 9.88834Z" fill="#67646A"/>
</svg>
